<svg width="50" height="50" viewBox="0 0 50 50" fill="none" xmlns="http://www.w3.org/2000/svg">
<path d="M25 12.5C24.4475 12.5 23.9176 12.7195 23.5269 13.1102C23.1362 13.5009 22.9167 14.0308 22.9167 14.5833V18.75C22.9167 19.3025 23.1362 19.8324 23.5269 20.2231C23.9176 20.6138 24.4475 20.8333 25 20.8333C25.5526 20.8333 26.0825 20.6138 26.4732 20.2231C26.8639 19.8324 27.0834 19.3025 27.0834 18.75V14.5833C27.0834 14.0308 26.8639 13.5009 26.4732 13.1102C26.0825 12.7195 25.5526 12.5 25 12.5ZM25 4.16663C21.1323 4.16663 17.423 5.70308 14.688 8.43799C11.9531 11.1729 10.4167 14.8822 10.4167 18.75V31.25C10.4167 35.1177 11.9531 38.827 14.688 41.5619C17.423 44.2968 21.1323 45.8333 25 45.8333C28.8678 45.8333 32.5771 44.2968 35.312 41.5619C38.0469 38.827 39.5834 35.1177 39.5834 31.25V18.75C39.5834 14.8822 38.0469 11.1729 35.312 8.43799C32.5771 5.70308 28.8678 4.16663 25 4.16663V4.16663ZM35.4167 31.25C35.4167 34.0126 34.3192 36.6622 32.3657 38.6157C30.4122 40.5692 27.7627 41.6666 25 41.6666C22.2373 41.6666 19.5878 40.5692 17.6343 38.6157C15.6808 36.6622 14.5834 34.0126 14.5834 31.25V18.75C14.5834 15.9873 15.6808 13.3378 17.6343 11.3843C19.5878 9.43076 22.2373 8.33329 25 8.33329C27.7627 8.33329 30.4122 9.43076 32.3657 11.3843C34.3192 13.3378 35.4167 15.9873 35.4167 18.75V31.25Z" fill="#FBFBFB"/>
</svg>
